<?xml version="1.0" encoding="UTF-8"?> <svg xmlns="http://www.w3.org/2000/svg" width="102" height="20" viewBox="0 0 102 20" fill="none"> <path d="M34.9427 11.7247C35.1343 11.4391 35.3259 11.1059 35.5176 10.725C35.7199 10.3442 35.8955 9.91575 36.0446 9.4397C36.2043 8.95307 36.332 8.41355 36.4279 7.82114C36.5237 7.22872 36.5716 6.57284 36.5716 5.85348V5.34569H41.8576V11.7247H43.183V15.3744H41.7937V13.2639H35.5495V15.3744H34.1602V11.7247H34.9427ZM40.4043 11.7247V6.88491H37.913C37.8811 7.45617 37.8119 7.99569 37.7054 8.50347C37.6096 9.01126 37.4925 9.47144 37.3541 9.88401C37.2263 10.2966 37.0879 10.6616 36.9389 10.9789C36.8005 11.2857 36.6727 11.5343 36.5556 11.7247H40.4043Z" fill="#3D3D3D"></path> <path d="M49.4242 10.4553C49.2965 10.2331 49.0409 10.0691 48.6577 9.96335C48.2744 9.84698 47.8645 9.7888 47.428 9.7888C46.8211 9.7888 46.3474 9.88401 46.0067 10.0744C45.6767 10.2543 45.5116 10.5134 45.5116 10.852C45.5116 11.1693 45.6713 11.4285 45.9907 11.6295C46.3208 11.8199 46.7999 11.9151 47.428 11.9151C47.6409 11.9151 47.8485 11.894 48.0508 11.8517C48.2637 11.8094 48.4607 11.7512 48.6417 11.6771C48.8227 11.6031 48.9824 11.5131 49.1208 11.4074C49.2592 11.3016 49.3603 11.1852 49.4242 11.0583V10.4553ZM44.4896 6.53581C44.7877 6.12324 45.1976 5.79 45.7192 5.53611C46.2409 5.28222 46.8211 5.15527 47.4599 5.15527C48.5246 5.15527 49.3603 5.43032 49.9672 5.98042C50.574 6.51994 50.8775 7.28162 50.8775 8.26545V13.2639H49.4721V12.5657C49.3763 12.7033 49.2432 12.8249 49.0729 12.9307C48.9025 13.0365 48.7109 13.1317 48.498 13.2163C48.2957 13.2904 48.0828 13.3486 47.8592 13.3909C47.6356 13.4332 47.412 13.4544 47.1885 13.4544C46.2409 13.4544 45.4797 13.2322 44.9048 12.7879C44.3405 12.333 44.0584 11.6983 44.0584 10.8837C44.0584 10.4711 44.1382 10.1062 44.2979 9.7888C44.4683 9.47144 44.6972 9.20167 44.9846 8.97952C45.2721 8.75736 45.6074 8.59339 45.9907 8.4876C46.374 8.37124 46.7892 8.31305 47.2364 8.31305C47.4173 8.31305 47.609 8.32892 47.8113 8.36066C48.0242 8.38182 48.2265 8.41884 48.4181 8.47174C48.6204 8.52463 48.8067 8.59339 48.9771 8.67802C49.1474 8.75207 49.2965 8.84728 49.4242 8.96365V8.58281C49.4242 8.25487 49.3657 7.97453 49.2485 7.7418C49.1314 7.49848 48.9771 7.30278 48.7854 7.15467C48.5938 6.99599 48.3649 6.87962 48.0987 6.80557C47.8432 6.73152 47.5717 6.69449 47.2843 6.69449C46.7732 6.69449 46.3101 6.79499 45.8949 6.99599C45.4797 7.19699 45.1497 7.46146 44.9048 7.7894L44.4896 6.53581Z" fill="#3D3D3D"></path> <path d="M60.5516 7.63072C60.7752 8.1385 60.887 8.69918 60.887 9.31275C60.887 9.92632 60.7752 10.487 60.5516 10.9948C60.328 11.5026 60.0299 11.9416 59.6573 12.3118C59.2847 12.6715 58.8482 12.9519 58.3478 13.1529C57.8581 13.3539 57.3417 13.4544 56.7987 13.4544C56.1919 13.4544 55.6702 13.3539 55.2337 13.1529C54.7972 12.9519 54.5151 12.7033 54.3873 12.4071V16.6439H52.9341V5.34569H54.3394V6.18671C54.4671 5.8905 54.7493 5.64719 55.1858 5.45677C55.6329 5.25577 56.1599 5.15527 56.7668 5.15527C57.3204 5.15527 57.8474 5.25577 58.3478 5.45677C58.8482 5.65777 59.2847 5.9434 59.6573 6.31366C60.0299 6.67334 60.328 7.11236 60.5516 7.63072ZM59.4337 9.28102C59.4337 8.4876 59.1889 7.85816 58.6991 7.3927C58.2094 6.92723 57.5599 6.69449 56.7508 6.69449C56.1972 6.69449 55.6968 6.82144 55.2497 7.07533C54.8132 7.31864 54.5257 7.63072 54.3873 8.01156V10.5981C54.5257 10.9789 54.8132 11.2963 55.2497 11.5502C55.6968 11.7935 56.1972 11.9151 56.7508 11.9151C57.5599 11.9151 58.2094 11.6771 58.6991 11.2011C59.1889 10.725 59.4337 10.085 59.4337 9.28102Z" fill="#3D3D3D"></path> <path d="M63.9361 5.34569V10.8837L68.184 5.34569H69.6373V13.2639H68.184V7.72593L63.9361 13.2639H62.4828V5.34569H63.9361Z" fill="#3D3D3D"></path> <path d="M79.2803 11.9151C79.5359 11.9151 79.786 11.8834 80.0309 11.8199C80.2758 11.7565 80.5047 11.6771 80.7176 11.5819C80.9412 11.4867 81.1382 11.3756 81.3085 11.2487C81.4788 11.1217 81.6226 10.9948 81.7397 10.8678L82.1229 11.9945C82.0378 12.1743 81.9047 12.3489 81.7237 12.5181C81.5534 12.6874 81.3404 12.8461 81.0849 12.9942C80.84 13.1317 80.5579 13.2428 80.2385 13.3274C79.9191 13.412 79.5731 13.4544 79.2005 13.4544C78.6043 13.4544 78.0507 13.3592 77.5396 13.1687C77.0393 12.9677 76.6028 12.6927 76.2301 12.3436C75.8681 11.9839 75.5807 11.5502 75.3678 11.0424C75.1655 10.524 75.0643 9.94748 75.0643 9.31275C75.0643 8.76265 75.1548 8.239 75.3358 7.7418C75.5168 7.23401 75.7776 6.7897 76.1183 6.40886C76.459 6.02803 76.8689 5.72653 77.348 5.50437C77.8271 5.27164 78.3701 5.15527 78.9769 5.15527C79.5518 5.15527 80.0682 5.26635 80.526 5.48851C80.9838 5.71066 81.3724 6.01216 81.6918 6.393C82.0218 6.76326 82.272 7.20228 82.4423 7.71006C82.6127 8.20727 82.6979 8.73621 82.6979 9.29688C82.6979 9.46615 82.6819 9.64599 82.6499 9.8364H76.5495C76.624 10.5346 76.9062 11.0583 77.3959 11.4074C77.8857 11.7459 78.5138 11.9151 79.2803 11.9151ZM81.1488 8.37653C81.1275 8.14379 81.0583 7.92693 80.9412 7.72593C80.8241 7.51435 80.6644 7.33451 80.4621 7.18641C80.2705 7.02773 80.0469 6.90607 79.7914 6.82144C79.5359 6.73681 79.2644 6.69449 78.9769 6.69449C78.6895 6.69449 78.4073 6.73681 78.1305 6.82144C77.8644 6.90607 77.6248 7.02244 77.4119 7.17054C77.2096 7.31864 77.0393 7.49848 76.9009 7.71006C76.7625 7.91106 76.6773 8.13321 76.6453 8.37653H81.1488Z" fill="#3D3D3D"></path> <path d="M84.2504 11.7247C84.4421 11.4391 84.6337 11.1059 84.8253 10.725C85.0276 10.3442 85.2033 9.91575 85.3523 9.4397C85.512 8.95307 85.6398 8.41355 85.7356 7.82114C85.8314 7.22872 85.8793 6.57284 85.8793 5.85348V5.34569H91.1653V11.7247H92.4908V15.3744H91.1014V13.2639H84.8573V15.3744H83.4679V11.7247H84.2504ZM89.7121 11.7247V6.88491H87.2208C87.1888 7.45617 87.1196 7.99569 87.0132 8.50347C86.9174 9.01126 86.8002 9.47144 86.6618 9.88401C86.5341 10.2966 86.3957 10.6616 86.2466 10.9789C86.1082 11.2857 85.9805 11.5343 85.8634 11.7247H89.7121Z" fill="#3D3D3D"></path> <path d="M92.903 5.34569H94.5319L96.9753 11.1693L99.4027 5.34569H101.016L96.2726 16.6439H94.6597L96.1928 12.9624L92.903 5.34569Z" fill="#3D3D3D"></path> <path fill-rule="evenodd" clip-rule="evenodd" d="M8.15562 5.10051L8.43489 4.46714L7.97484 3.92182L7.22478 4.23185L7.4396 5.08932L8.15562 5.10051ZM12.8416 4.2988L12.9312 3.59839L12.219 3.21024L11.5791 3.90088L12.0877 4.52124L12.8416 4.2988ZM9.90804 0.582818L10.0537 1.3028L9.60882 1.66221L8.88345 1.49357L8.62672 1.00762L9.09908 0.296638L9.90804 0.582818Z" fill="#3D3D3D"></path> <path d="M7.15086 7.84161L6.90386 8.31189L7.15086 7.84161ZM7.33265 7.93476L7.57231 7.4607L7.57231 7.4607L7.33265 7.93476ZM8.22353 8.64672L8.65987 8.34378L8.65987 8.34377L8.22353 8.64672ZM10.3964 10.0457L10.5405 9.53446L10.3964 10.0457ZM11.7369 11.317L12.1911 11.0416L12.1911 11.0416L11.7369 11.317ZM12.1191 11.645L12.3693 11.1764L12.3693 11.1764L12.1191 11.645ZM12.4729 12.3095L13.0035 12.3344L13.0035 12.3344L12.4729 12.3095ZM12.0017 13.7176L12.3716 14.0988L12.3716 14.0988L12.0017 13.7176ZM1.7546 17.9224L2.13833 17.5551L1.7546 17.9224ZM6.30719 7.76867L5.93737 7.38736L5.93731 7.38742L6.30719 7.76867ZM5.98378 9.97521L5.66328 10.3988L5.98378 9.97521ZM12.0073 13.7121L11.6374 13.3309L12.0073 13.7121ZM6.31226 7.76376L5.94244 7.38244L6.31226 7.76376ZM12.0125 13.7025L11.9167 14.225L12.0125 13.7025ZM12.0257 13.7008L11.6137 13.3656L12.0257 13.7008ZM12.021 13.7033L12.0351 14.2344L12.021 13.7033ZM6.31655 7.76285L6.76434 8.04861L6.31655 7.76285ZM7.39785 7.37133C7.18581 7.25997 6.9369 7.1834 6.71091 7.15828C6.59887 7.14582 6.46589 7.14293 6.3337 7.17061C6.21238 7.19602 6.00286 7.26697 5.86877 7.47709L6.76434 8.04861C6.67691 8.18562 6.55617 8.20946 6.5515 8.21044C6.53595 8.2137 6.54747 8.20904 6.59352 8.21416C6.68369 8.22419 6.80528 8.26011 6.90386 8.31189L7.39785 7.37133ZM7.57231 7.4607C7.51371 7.43108 7.45684 7.40231 7.39785 7.37133L6.90386 8.31189C6.97125 8.34729 7.03527 8.37964 7.093 8.40882L7.57231 7.4607ZM8.65987 8.34377C8.3005 7.82615 7.93304 7.64306 7.57231 7.4607L7.093 8.40882C7.42418 8.57625 7.58691 8.66119 7.78719 8.94966L8.65987 8.34377ZM10.5405 9.53446C10.3767 9.48831 9.96851 9.29075 9.53216 9.02046C9.32272 8.89073 9.12355 8.75452 8.96164 8.62727C8.79005 8.4924 8.6949 8.39422 8.65987 8.34378L7.78719 8.94966C7.9156 9.13461 8.11373 9.3121 8.30515 9.46254C8.50626 9.6206 8.73982 9.77935 8.97271 9.92362C9.42101 10.2013 9.93588 10.4679 10.2524 10.557L10.5405 9.53446ZM12.1911 11.0416C12.0278 10.7721 11.7873 10.455 11.5176 10.1823C11.2618 9.92369 10.9176 9.64071 10.5405 9.53446L10.2524 10.557C10.3555 10.5861 10.5391 10.7037 10.7622 10.9294C10.9715 11.1409 11.161 11.3917 11.2826 11.5923L12.1911 11.0416ZM12.3693 11.1764C12.3006 11.1397 12.2707 11.1226 12.2453 11.103C12.2263 11.0883 12.2093 11.0715 12.1911 11.0416L11.2826 11.5923C11.4745 11.909 11.7333 12.0411 11.8689 12.1136L12.3693 11.1764ZM13.0035 12.3344C13.0173 12.0414 12.975 11.7686 12.8162 11.5404C12.6661 11.3247 12.4535 11.2214 12.3693 11.1764L11.8689 12.1136C11.9251 12.1436 11.9446 12.1548 11.958 12.1641C11.9654 12.1693 11.9555 12.1636 11.9442 12.1473C11.9171 12.1083 11.9503 12.1136 11.9423 12.2846L13.0035 12.3344ZM12.4378 14.036C12.5934 13.8448 12.7337 13.6334 12.8348 13.3456C12.9329 13.0664 12.9844 12.7425 13.0035 12.3344L11.9423 12.2846C11.9259 12.635 11.884 12.8468 11.8324 12.9936C11.7838 13.1319 11.7184 13.237 11.6137 13.3656L12.4378 14.036ZM11.9167 14.225C11.9443 14.2301 11.9855 14.2357 12.0351 14.2344L12.007 13.1723C12.0517 13.1711 12.0871 13.1762 12.1083 13.1801L11.9167 14.225ZM12.3716 14.0988L12.3773 14.0933L11.6374 13.3309L11.6317 13.3364L12.3716 14.0988ZM1.37087 18.2897C1.89807 18.8405 2.64285 19.0555 3.44991 19.0472C4.25509 19.0388 5.17276 18.8099 6.13691 18.4143C8.06824 17.6218 10.2922 16.1162 12.3716 14.0988L11.6318 13.3363C9.62436 15.2839 7.511 16.7021 5.73361 17.4315C4.84341 17.7967 4.06386 17.9783 3.43887 17.9848C2.81574 17.9913 2.39736 17.8257 2.13833 17.5551L1.37087 18.2897ZM5.93731 7.38742C3.85784 9.4049 2.28156 11.5863 1.42395 13.499C0.995791 14.454 0.735218 15.3675 0.697229 16.1755C0.659188 16.9845 0.844307 17.7396 1.37087 18.2897L2.13833 17.5551C1.87864 17.2838 1.72886 16.8546 1.75845 16.2254C1.78809 15.595 1.99766 14.8162 2.39336 13.9337C3.18346 12.1715 4.66973 10.0974 6.67708 8.14993L5.93731 7.38742ZM5.94244 7.38244L5.93737 7.38736L6.67701 8.14999L6.68208 8.14508L5.94244 7.38244ZM4.60486 9.80405C5.07696 10.0273 5.44463 10.2334 5.66328 10.3988L6.30427 9.5516C5.99602 9.31838 5.54812 9.07489 5.059 8.84361L4.60486 9.80405ZM5.66328 10.3988C6.75007 11.2211 7.64812 12.3363 8.19676 13.5043L9.15835 13.0526C8.53555 11.7268 7.52666 10.4764 6.30427 9.5516L5.66328 10.3988ZM2.54983 12.3544C3.56122 13.1362 4.39113 13.9154 5.00828 15.445L5.99351 15.0475C5.27816 13.2745 4.28808 12.3552 3.19956 11.5138L2.54983 12.3544ZM11.5273 13.9337C11.4316 13.7299 11.4758 13.4878 11.6374 13.3309L12.3773 14.0933C12.5411 13.9343 12.586 13.6888 12.4889 13.4821L11.5273 13.9337ZM6.68208 8.14508C6.51826 8.30395 6.27109 8.33999 6.06873 8.23451L6.55981 7.29243C6.35612 7.18625 6.10733 7.22253 5.94244 7.38244L6.68208 8.14508ZM12.1083 13.1801C11.7284 13.1104 11.3218 13.4961 11.5273 13.9337L12.4889 13.4821C12.6918 13.9141 12.2904 14.2935 11.9167 14.225L12.1083 13.1801ZM11.6137 13.3656C11.6859 13.2769 11.8191 13.1773 12.007 13.1723L12.0351 14.2344C12.2267 14.2293 12.3633 14.1277 12.4378 14.036L11.6137 13.3656ZM5.86877 7.47709C6.01466 7.24849 6.31352 7.16404 6.55981 7.29243L6.06873 8.23451C6.31663 8.36373 6.61747 8.27875 6.76434 8.04861L5.86877 7.47709Z" fill="#3D3D3D"></path> <path d="M2.01953 13.5027C2.23338 13.0841 2.68166 12.2372 3.21223 11.4377C3.45789 11.0675 3.66821 10.792 3.95332 10.4058C4.39744 9.80425 4.90737 9.22861 5.39136 8.71706" stroke="#3D3D3D" stroke-width="1.06239"></path> <path d="M16.39 5.31445L16.8655 5.55202L16.8655 5.55202L16.39 5.31445ZM15.2264 7.66036L15.7575 7.63652L15.7571 7.6295L15.2264 7.66036ZM15.2264 7.66037L14.6953 7.68421L14.6957 7.69123L15.2264 7.66037ZM15.2461 8.06302L15.7758 8.10942L15.7785 8.07789L15.7775 8.04625L15.2461 8.06302ZM14.8571 9.61131L14.3958 9.3472L14.8571 9.61131ZM14.5198 10.2559L15.0007 10.4826L15.0019 10.4799L14.5198 10.2559ZM14.5019 10.2939L14.9822 10.5217L14.9828 10.5205L14.5019 10.2939ZM14.4295 12.243L14.887 11.9729L14.887 11.9729L14.4295 12.243ZM14.8842 12.6203L14.7411 13.1314L14.7412 13.1314L14.8842 12.6203ZM14.9284 12.6347L14.7852 13.1457L14.7853 13.1458L14.9284 12.6347ZM25.943 11.4422L26.4561 11.5813L26.4561 11.5813L25.943 11.4422ZM18.3647 6.72607L18.8779 6.86518L18.8779 6.86518L18.3647 6.72607ZM14.921 12.6326L14.7779 13.1437L14.921 12.6326ZM14.3535 12.0745L13.832 12.1773L14.3535 12.0745ZM14.9142 12.6252L14.887 13.1552L14.9142 12.6252ZM15.8847 6.03245L16.1646 6.48384L15.8847 6.03245ZM17.1693 4.71718L17.3141 4.20657L17.1693 4.71718ZM16.8655 5.55202C16.9146 5.45396 16.9559 5.37184 16.9968 5.29919C17.0381 5.22573 17.0691 5.18032 17.0914 5.15384C17.1151 5.12569 17.108 5.14415 17.0652 5.16255C17.0073 5.18742 16.9419 5.18775 16.8956 5.173L17.2182 4.16171C17.024 4.09985 16.8253 4.10974 16.6445 4.18741C16.4788 4.25859 16.3593 4.37306 16.2772 4.4707C16.1221 4.65496 16.0003 4.90536 15.9144 5.07689L16.8655 5.55202ZM16.1646 6.48384C16.3698 6.3571 16.5119 6.17154 16.6098 6.0195C16.7101 5.86372 16.7964 5.68996 16.8655 5.55202L15.9144 5.07689C15.8396 5.22626 15.7789 5.34632 15.7153 5.44511C15.6848 5.49248 15.6589 5.52649 15.6375 5.55018C15.616 5.57395 15.6047 5.58111 15.6048 5.58106L16.1646 6.48384ZM15.7571 7.6295C15.7369 7.2856 15.7354 7.16051 15.7701 7.04203C15.8014 6.93538 15.8801 6.78382 16.1574 6.48183L15.3735 5.76422C15.0591 6.10656 14.8494 6.40283 14.7496 6.74336C14.6533 7.07204 14.6782 7.39346 14.6957 7.69122L15.7571 7.6295ZM15.7575 7.63653L15.7575 7.63652L14.6954 7.68419L14.6954 7.68421L15.7575 7.63653ZM15.7775 8.04625C15.7724 7.88734 15.7641 7.74832 15.7571 7.62951L14.6957 7.69123C14.7028 7.81062 14.7102 7.93669 14.7148 8.07979L15.7775 8.04625ZM15.3184 9.87541C15.4273 9.68573 15.5331 9.50457 15.6116 9.22288C15.6848 8.96035 15.7307 8.62532 15.7758 8.10942L14.7165 8.01662C14.6719 8.52743 14.6319 8.77745 14.5872 8.93783C14.5479 9.07906 14.504 9.15869 14.3958 9.3472L15.3184 9.87541ZM15.0019 10.4799C15.1329 10.1988 15.2334 10.0237 15.3184 9.87541L14.3958 9.3472C14.306 9.50369 14.1878 9.70958 14.0377 10.0319L15.0019 10.4799ZM14.9828 10.5205L15.0007 10.4826L14.039 10.0293L14.0211 10.0672L14.9828 10.5205ZM14.875 11.9716C14.7833 11.5094 14.795 11.1905 14.8314 10.9758C14.8672 10.7641 14.9302 10.6311 14.9822 10.5217L14.0216 10.066C13.9579 10.2 13.8438 10.4393 13.783 10.7981C13.7227 11.1539 13.7181 11.6035 13.832 12.1773L14.875 11.9716ZM14.887 11.9729C14.8794 11.9601 14.8702 11.9446 14.8607 11.929L13.9514 12.4786C13.9576 12.4888 13.964 12.4995 13.972 12.5131L14.887 11.9729ZM15.0273 12.1092C14.9958 12.1004 14.9787 12.092 14.9708 12.0874C14.9633 12.0832 14.9594 12.0799 14.9562 12.0768C14.9451 12.066 14.9329 12.0504 14.887 11.9729L13.972 12.5131C14.0112 12.5792 14.0879 12.7135 14.2136 12.8361C14.3492 12.9683 14.5214 13.0699 14.7411 13.1314L15.0273 12.1092ZM14.9414 12.0951C14.9694 12.0965 14.9983 12.1011 15.0273 12.1092L14.7412 13.1314C14.7896 13.1449 14.8385 13.1527 14.887 13.1552L14.9414 12.0951ZM15.0716 12.1236L15.0642 12.1215L14.7779 13.1437L14.7852 13.1457L15.0716 12.1236ZM25.4298 11.3031C25.3318 11.6644 25.0436 12.0092 24.4933 12.3005C23.9413 12.5928 23.1697 12.805 22.2129 12.9086C20.3025 13.1154 17.7671 12.8773 15.0715 12.1236L14.7853 13.1458C17.5776 13.9265 20.252 14.1887 22.3281 13.9639C23.3646 13.8517 24.2804 13.6151 24.9919 13.2384C25.7051 12.8609 26.2566 12.3166 26.4561 11.5813L25.4298 11.3031ZM17.0245 5.22779C19.6982 5.98506 21.9746 7.09514 23.496 8.26078C24.258 8.84453 24.8084 9.42533 25.1321 9.9616C25.4551 10.4968 25.5277 10.9427 25.4298 11.3031L26.4561 11.5813C26.6543 10.851 26.4587 10.1035 26.0427 9.41418C25.6273 8.72589 24.968 8.05086 24.143 7.41878C22.4905 6.15274 20.084 4.99109 17.3141 4.20657L17.0245 5.22779ZM18.3809 5.06942C18.1492 5.65504 17.9574 6.1973 17.8516 6.58697L18.8779 6.86518C18.9682 6.5322 19.1432 6.03267 19.3698 5.45994L18.3809 5.06942ZM17.8516 6.58697C17.4445 8.08711 17.5702 9.84945 17.8522 10.871L18.8772 10.5894C18.6382 9.72387 18.5274 8.1566 18.8779 6.86518L17.8516 6.58697ZM21.3692 6.51458C21.2381 7.27126 21.1903 8.17347 21.2135 8.98224C21.2361 9.76968 21.3278 10.5505 21.5197 11.0234L22.5051 10.6253C22.3904 10.3426 22.2986 9.72837 22.2763 8.95246C22.2546 8.19786 22.3004 7.36838 22.4169 6.6961L21.3692 6.51458ZM14.3874 12.6604C14.4011 12.8881 14.5579 13.0821 14.7779 13.1437L15.0642 12.1215C15.2809 12.1822 15.4353 12.3733 15.4488 12.5975L14.3874 12.6604ZM13.832 12.1773C13.8562 12.2991 13.9042 12.4007 13.9514 12.4786L14.8607 11.929C14.8595 11.9269 14.869 11.9415 14.875 11.9716L13.832 12.1773ZM14.887 13.1552C14.6272 13.1418 14.404 12.9367 14.3874 12.6604L15.4488 12.5975C15.4319 12.3171 15.2053 12.1087 14.9414 12.0951L14.887 13.1552ZM15.6048 5.58106C15.5665 5.6047 15.4633 5.66636 15.3735 5.76422L16.1574 6.48183C16.1436 6.49686 16.1337 6.5038 16.1351 6.50276C16.1357 6.50237 16.1379 6.50074 16.143 6.49742C16.1483 6.49398 16.1548 6.48991 16.1646 6.48384L15.6048 5.58106ZM16.8583 5.15956C16.8511 5.15667 16.8477 5.15487 16.8514 5.15667C16.8532 5.15753 16.8555 5.15871 16.8599 5.16089C16.8634 5.16269 16.8699 5.16594 16.876 5.16901C16.8989 5.18033 16.9545 5.20796 17.0245 5.22779L17.3141 4.20657C17.331 4.21137 17.343 4.2162 17.3484 4.21847C17.3533 4.22056 17.3549 4.2215 17.3491 4.21863C17.3461 4.21712 17.3433 4.21572 17.3377 4.2129C17.3328 4.21046 17.326 4.20702 17.3185 4.20336C17.3037 4.19613 17.2817 4.18568 17.2555 4.17514L16.8583 5.15956Z" fill="#3D3D3D"></path> <path d="M17.8965 4.94043L20.2756 5.80285L21.4355 6.3699L23.637 7.69309" stroke="#3D3D3D" stroke-width="1.06239"></path> </svg> 