<?xml version="1.0" encoding="UTF-8"?> <svg xmlns="http://www.w3.org/2000/svg" width="107" height="21" viewBox="0 0 107 21" fill="none"> <path d="M36.9623 12.4284C37.1654 12.1257 37.3685 11.7724 37.5717 11.3688C37.7861 10.9651 37.9723 10.5109 38.1303 10.0063C38.2996 9.4905 38.435 8.91861 38.5366 8.29065C38.6381 7.66269 38.6889 6.96746 38.6889 6.20494V5.66669H44.292V12.4284H45.697V16.2971H44.2243V14.06H37.6055V16.2971H36.1328V12.4284H36.9623ZM42.7516 12.4284V7.29825H40.1109C40.077 7.90378 40.0036 8.47567 39.8908 9.01392C39.7892 9.55217 39.6651 10.04 39.5184 10.4773C39.383 10.9146 39.2362 11.3015 39.0783 11.6379C38.9315 11.9631 38.7961 12.2266 38.672 12.4284H42.7516Z" fill="#1D1D1D"></path> <path d="M52.3127 11.0828C52.1772 10.8473 51.9064 10.6735 51.5001 10.5614C51.0938 10.438 50.6594 10.3764 50.1967 10.3764C49.5534 10.3764 49.0512 10.4773 48.6901 10.6791C48.3403 10.8698 48.1653 11.1445 48.1653 11.5033C48.1653 11.8397 48.3346 12.1145 48.6732 12.3275C49.023 12.5294 49.5308 12.6303 50.1967 12.6303C50.4224 12.6303 50.6424 12.6079 50.8569 12.563C51.0826 12.5181 51.2913 12.4565 51.4832 12.378C51.675 12.2995 51.8443 12.2042 51.991 12.092C52.1377 11.9799 52.2449 11.8565 52.3127 11.722V11.0828ZM47.082 6.92821C47.3979 6.49088 47.8324 6.13765 48.3854 5.86853C48.9384 5.59941 49.5534 5.46484 50.2305 5.46484C51.3591 5.46484 52.2449 5.7564 52.8882 6.3395C53.5315 6.91139 53.8531 7.71876 53.8531 8.76162V14.06H52.3634V13.3199C52.2619 13.4657 52.1208 13.5946 51.9402 13.7068C51.7597 13.8189 51.5565 13.9198 51.3308 14.0095C51.1164 14.088 50.8907 14.1497 50.6537 14.1946C50.4167 14.2394 50.1797 14.2618 49.9428 14.2618C48.9384 14.2618 48.1315 14.0264 47.5221 13.5554C46.924 13.0732 46.6249 12.4004 46.6249 11.537C46.6249 11.0996 46.7095 10.7128 46.8788 10.3764C47.0594 10.04 47.302 9.75401 47.6067 9.51853C47.9114 9.28305 48.2669 9.10924 48.6732 8.9971C49.0794 8.87375 49.5196 8.81208 49.9935 8.81208C50.1854 8.81208 50.3885 8.8289 50.6029 8.86254C50.8286 8.88497 51.0431 8.92421 51.2462 8.98028C51.4606 9.03635 51.6581 9.10924 51.8387 9.19894C52.0192 9.27744 52.1772 9.37836 52.3127 9.50171V9.09802C52.3127 8.7504 52.2506 8.45325 52.1264 8.20655C52.0023 7.94864 51.8387 7.74119 51.6355 7.5842C51.4324 7.416 51.1898 7.29265 50.9076 7.21415C50.6368 7.13566 50.349 7.09641 50.0443 7.09641C49.5026 7.09641 49.0117 7.20294 48.5716 7.416C48.1315 7.62905 47.7816 7.90939 47.5221 8.25701L47.082 6.92821Z" fill="#1D1D1D"></path> <path d="M64.1077 8.08881C64.3446 8.62706 64.4631 9.22137 64.4631 9.87176C64.4631 10.5221 64.3446 11.1165 64.1077 11.6547C63.8707 12.193 63.5547 12.6583 63.1597 13.0508C62.7647 13.432 62.302 13.7292 61.7716 13.9423C61.2525 14.1553 60.7052 14.2618 60.1296 14.2618C59.4864 14.2618 58.9334 14.1553 58.4707 13.9423C58.008 13.7292 57.7089 13.4657 57.5735 13.1517V17.6427H56.0331V5.66669H57.5227V6.55816C57.6581 6.24418 57.9572 5.98627 58.4199 5.78443C58.8939 5.57137 59.4525 5.46484 60.0958 5.46484C60.6826 5.46484 61.2412 5.57137 61.7716 5.78443C62.302 5.99749 62.7647 6.30025 63.1597 6.69272C63.5547 7.07398 63.8707 7.53934 64.1077 8.08881ZM62.9227 9.83811C62.9227 8.9971 62.6631 8.3299 62.144 7.8365C61.6249 7.34311 60.9365 7.09641 60.0788 7.09641C59.492 7.09641 58.9616 7.23097 58.4876 7.5001C58.0249 7.75801 57.7202 8.08881 57.5735 8.49249V11.2342C57.7202 11.6379 58.0249 11.9743 58.4876 12.2434C58.9616 12.5013 59.492 12.6303 60.0788 12.6303C60.9365 12.6303 61.6249 12.378 62.144 11.8734C62.6631 11.3688 62.9227 10.6903 62.9227 9.83811Z" fill="#1D1D1D"></path> <path d="M67.6952 5.66669V11.537L72.198 5.66669H73.7384V14.06H72.198V8.18973L67.6952 14.06H66.1547V5.66669H67.6952Z" fill="#1D1D1D"></path> <path d="M83.96 12.6303C84.2309 12.6303 84.4961 12.5966 84.7556 12.5294C85.0152 12.4621 85.2578 12.378 85.4835 12.2771C85.7205 12.1761 85.9293 12.0584 86.1099 11.9238C86.2904 11.7893 86.4428 11.6547 86.5669 11.5201L86.9732 12.7144C86.8829 12.905 86.7418 13.09 86.55 13.2695C86.3694 13.4489 86.1437 13.6171 85.8729 13.7741C85.6133 13.9198 85.3143 14.0376 84.9757 14.1273C84.6371 14.217 84.2704 14.2618 83.8754 14.2618C83.2434 14.2618 82.6566 14.1609 82.1149 13.9591C81.5845 13.746 81.1218 13.4545 80.7268 13.0844C80.3431 12.7032 80.0384 12.2434 79.8127 11.7052C79.5983 11.1557 79.4911 10.5446 79.4911 9.87176C79.4911 9.28865 79.587 8.73358 79.7789 8.20655C79.9707 7.6683 80.2472 7.19733 80.6083 6.79365C80.9695 6.38996 81.4039 6.07037 81.9118 5.83489C82.4196 5.58819 82.9951 5.46484 83.6384 5.46484C84.2478 5.46484 84.7951 5.58259 85.2804 5.81807C85.7657 6.05355 86.1776 6.37314 86.5161 6.77683C86.866 7.1693 87.1312 7.63466 87.3117 8.17291C87.4923 8.69994 87.5826 9.26062 87.5826 9.85494C87.5826 10.0344 87.5657 10.225 87.5318 10.4268H81.0654C81.1444 11.1669 81.4434 11.722 81.9626 12.092C82.4817 12.4509 83.1475 12.6303 83.96 12.6303ZM85.9406 8.87936C85.918 8.63266 85.8447 8.40279 85.7205 8.18973C85.5964 7.96546 85.4271 7.77483 85.2127 7.61784C85.0096 7.44964 84.7726 7.32068 84.5017 7.23097C84.2309 7.14126 83.9431 7.09641 83.6384 7.09641C83.3337 7.09641 83.0346 7.14126 82.7412 7.23097C82.4591 7.32068 82.2052 7.44403 81.9795 7.60102C81.7651 7.75801 81.5845 7.94864 81.4378 8.17291C81.2911 8.38596 81.2008 8.62145 81.1669 8.87936H85.9406Z" fill="#1D1D1D"></path> <path d="M89.2283 12.4284C89.4314 12.1257 89.6346 11.7724 89.8377 11.3688C90.0521 10.9651 90.2383 10.5109 90.3963 10.0063C90.5656 9.4905 90.701 8.91861 90.8026 8.29065C90.9042 7.66269 90.9549 6.96746 90.9549 6.20494V5.66669H96.5581V12.4284H97.9631V16.2971H96.4903V14.06H89.8716V16.2971H88.3988V12.4284H89.2283ZM95.0176 12.4284V7.29825H92.3769C92.343 7.90378 92.2697 8.47567 92.1568 9.01392C92.0552 9.55217 91.9311 10.04 91.7844 10.4773C91.649 10.9146 91.5023 11.3015 91.3443 11.6379C91.1976 11.9631 91.0621 12.2266 90.938 12.4284H95.0176Z" fill="#1D1D1D"></path> <path d="M98.4 5.66669H100.127L102.717 11.8397L105.29 5.66669H106.999L101.972 17.6427H100.262L101.887 13.7404L98.4 5.66669Z" fill="#1D1D1D"></path> <path fill-rule="evenodd" clip-rule="evenodd" d="M8.56812 5.40571L8.86414 4.73434L8.37649 4.15631L7.58144 4.48494L7.80914 5.39385L8.56812 5.40571ZM13.5367 4.55553L13.6317 3.81308L12.8768 3.40165L12.1985 4.13372L12.7376 4.79131L13.5367 4.55553ZM10.4286 0.617433L10.5831 1.38061L10.1115 1.76159L9.34257 1.58283L9.07044 1.06773L9.57114 0.314082L10.4286 0.617433Z" fill="#1D1D1D"></path> <path d="M7.51964 8.3145L7.78145 7.81601L7.78145 7.81601L7.51964 8.3145ZM7.71233 8.41323L7.9685 7.91181L7.96636 7.91073L7.71233 8.41323ZM7.71234 8.41324L7.45617 8.91466L7.45831 8.91574L7.71234 8.41324ZM8.65667 9.16791L9.11919 8.84679L9.11919 8.84679L8.65667 9.16791ZM10.9599 10.6509L11.1126 10.1089L10.9599 10.6509ZM12.3808 11.9984L12.8623 11.7065L12.8623 11.7065L12.3808 11.9984ZM12.786 12.3461L12.5208 12.8428L12.5208 12.8428L12.786 12.3461ZM13.161 13.0504L12.5986 13.0241L13.161 13.0504ZM12.6616 14.5426L13.0537 14.9467L13.0537 14.9467L12.6616 14.5426ZM1.79974 18.9997L2.20649 18.6103L2.20649 18.6103L1.79974 18.9997ZM6.62548 8.23678L6.23348 7.83258L6.2334 7.83265L6.62548 8.23678ZM6.28221 10.5766L6.62193 10.1276L6.62193 10.1276L6.28221 10.5766ZM6.63081 8.2316L6.23881 7.8274L6.63081 8.2316ZM12.6729 14.5271L12.7749 13.9733L12.6729 14.5271ZM12.687 14.5253L12.2502 14.17L12.687 14.5253ZM12.6821 14.5279L12.6979 15.0908L12.6821 14.5279ZM12.6677 14.5367L12.2756 14.1326L12.6677 14.5367ZM6.63554 8.23061L6.16211 7.92581L6.63554 8.23061ZM7.78145 7.81601C7.55687 7.69806 7.2933 7.61695 7.05396 7.59024C6.93528 7.577 6.79454 7.57388 6.65463 7.603C6.52629 7.62972 6.30471 7.70431 6.16211 7.92581L7.10898 8.5354C7.0161 8.67967 6.88877 8.70453 6.88413 8.7055C6.86791 8.70887 6.88029 8.70398 6.92908 8.70943C7.02468 8.72009 7.15344 8.75817 7.25783 8.813L7.78145 7.81601ZM7.96636 7.91073C7.90426 7.87933 7.84397 7.84884 7.78145 7.81601L7.25783 8.813C7.32925 8.85051 7.3971 8.8848 7.45829 8.91573L7.96636 7.91073ZM7.96852 7.91182L7.9685 7.91181L7.45615 8.91464L7.45617 8.91465L7.96852 7.91182ZM9.11919 8.84679C8.73826 8.29812 8.34875 8.10404 7.96638 7.91074L7.45831 8.91574C7.80937 9.09321 7.98186 9.18325 8.19415 9.48902L9.11919 8.84679ZM11.1126 10.1089C10.939 10.06 10.5063 9.85058 10.0438 9.56407C9.82181 9.42656 9.61069 9.28218 9.43907 9.14729C9.25718 9.00434 9.15632 8.90026 9.11919 8.84679L8.19415 9.48902C8.33026 9.68508 8.54028 9.87321 8.74319 10.0327C8.95636 10.2002 9.20393 10.3685 9.4508 10.5214C9.926 10.8158 10.4718 11.0983 10.8072 11.1928L11.1126 10.1089ZM12.8623 11.7065C12.6892 11.4208 12.4342 11.0847 12.1484 10.7956C11.8773 10.5215 11.5124 10.2215 11.1126 10.1089L10.8072 11.1928C10.9166 11.2237 11.1111 11.3483 11.3477 11.5875C11.5695 11.8118 11.7704 12.0776 11.8993 12.2902L12.8623 11.7065ZM13.0512 11.8494C12.9783 11.8105 12.9467 11.7923 12.9197 11.7715C12.8996 11.756 12.8815 11.7382 12.8623 11.7065L11.8993 12.2902C12.1027 12.6259 12.377 12.766 12.5208 12.8428L13.0512 11.8494ZM13.7235 13.0768C13.738 12.7663 13.6932 12.4771 13.5249 12.2353C13.3658 12.0065 13.1404 11.897 13.0512 11.8494L12.5208 12.8428C12.5803 12.8746 12.601 12.8864 12.6152 12.8964C12.623 12.9019 12.6126 12.8958 12.6006 12.8785C12.5718 12.8371 12.6071 12.8428 12.5986 13.0241L13.7235 13.0768ZM13.1238 14.8806C13.2887 14.6779 13.4375 14.4538 13.5446 14.1488C13.6485 13.8528 13.7032 13.5095 13.7235 13.0768L12.5986 13.0241C12.5811 13.3955 12.5367 13.62 12.4821 13.7756C12.4306 13.9222 12.3612 14.0336 12.2502 14.17L13.1238 14.8806ZM12.5709 15.0808C12.6003 15.0862 12.6445 15.0922 12.6979 15.0908L12.6663 13.9651C12.7143 13.9637 12.7524 13.9692 12.7749 13.9733L12.5709 15.0808ZM13.0537 14.9467L13.0598 14.9408L12.2756 14.1326L12.2695 14.1385L13.0537 14.9467ZM1.39299 19.389C1.95183 19.9728 2.74129 20.2008 3.59676 20.1919C4.45026 20.1831 5.42298 19.9405 6.44498 19.5211C8.49218 18.6811 10.8495 17.0852 13.0537 14.9467L12.2695 14.1385C10.1417 16.2029 7.90151 17.7062 6.01748 18.4793C5.07387 18.8665 4.24756 19.059 3.58506 19.0659C2.92455 19.0727 2.48107 18.8972 2.20649 18.6103L1.39299 19.389ZM6.2334 7.83265C4.02917 9.97117 2.35833 12.2834 1.44926 14.3109C0.995411 15.3232 0.719205 16.2915 0.678937 17.1479C0.638614 18.0056 0.834839 18.8059 1.39299 19.389L2.20649 18.6103C1.93123 18.3227 1.77247 17.8678 1.80382 17.2008C1.83524 16.5327 2.05739 15.7071 2.47683 14.7717C3.31434 12.9038 4.88978 10.7052 7.01755 8.6409L6.2334 7.83265ZM6.23881 7.8274L6.23348 7.83258L7.01748 8.64098L7.02281 8.6358L6.23881 7.8274ZM4.82032 10.3951C5.32085 10.6317 5.71067 10.8503 5.94248 11.0257L6.62193 10.1276C6.29513 9.88035 5.82025 9.62221 5.30168 9.37701L4.82032 10.3951ZM5.94248 11.0257C7.09448 11.8972 8.0464 13.0794 8.62796 14.3175L9.64724 13.8387C8.98708 12.4333 7.91765 11.1079 6.62193 10.1276L5.94248 11.0257ZM2.64225 13.0983C3.71433 13.927 4.59404 14.753 5.24822 16.3744L6.29255 15.953C5.53428 14.0736 4.48479 13.0992 3.33097 12.2073L2.64225 13.0983ZM7.02281 8.6358C6.84919 8.80419 6.58721 8.84238 6.37274 8.73057L6.89331 7.73199C6.67738 7.61942 6.41362 7.65787 6.23881 7.8274L7.02281 8.6358ZM12.7749 13.9733C12.3702 13.8988 11.9418 14.3097 12.1588 14.7718L13.1781 14.2932C13.3924 14.7495 12.9693 15.1542 12.5709 15.0808L12.7749 13.9733ZM12.2502 14.17C12.3268 14.0757 12.4678 13.9706 12.6663 13.9651L12.6979 15.0908C12.9002 15.0851 13.0447 14.9779 13.1238 14.8806L12.2502 14.17ZM12.1588 14.7718C12.0573 14.5557 12.1042 14.2989 12.2756 14.1326L13.0598 14.9408C13.2335 14.7723 13.281 14.5122 13.1781 14.2932L12.1588 14.7718ZM6.16211 7.92581C6.31719 7.68492 6.63298 7.59627 6.89331 7.73199L6.37274 8.73057C6.63485 8.86721 6.95281 8.77798 7.10898 8.5354L6.16211 7.92581Z" fill="#1D1D1D"></path> <path d="M2.06445 14.3155C2.29113 13.8717 2.76631 12.974 3.32871 12.1266C3.58911 11.7342 3.81204 11.4421 4.11426 11.0328C4.58503 10.3951 5.12555 9.78494 5.63858 9.2427" stroke="#1D1D1D" stroke-width="1.12613"></path> <path d="M17.3164 5.63549L16.8123 5.38368L17.3164 5.63549ZM16.083 8.12214L16.6463 8.10144L16.6456 8.08943L16.083 8.12214ZM16.083 8.12215L15.5199 8.14285L15.5202 8.15025L15.5207 8.15763L16.083 8.12215ZM16.083 8.12217L16.6456 8.08946L16.6454 8.08669L16.083 8.12217ZM16.1039 8.54896L16.6653 8.59815L16.6682 8.56472L16.6671 8.53119L16.1039 8.54896ZM15.6916 10.1901L15.2026 9.91019L15.2026 9.91019L15.6916 10.1901ZM15.3341 10.8734L15.8438 11.1137L15.8451 11.1109L15.3341 10.8734ZM15.315 10.9136L15.8241 11.1552L15.8248 11.1539L15.315 10.9136ZM15.2383 12.9797L14.7534 13.2661L15.2383 12.9797ZM15.7203 13.3796L15.8719 12.8379L15.8719 12.8379L15.7203 13.3796ZM15.7682 13.3943L15.6164 13.9361L15.6165 13.9361L15.7682 13.3943ZM27.4436 12.1303L26.8997 11.9829L27.4436 12.1303ZM19.4065 7.13126L19.9504 7.2787L19.9504 7.2787L19.4065 7.13126ZM15.7601 13.3921L15.9119 12.8503L15.7601 13.3921ZM15.7535 13.3849L15.73 13.947L15.7535 13.3849ZM16.7808 6.39657L17.0775 6.87504L16.7808 6.39657ZM15.1577 12.8011L15.7105 12.6921L15.1577 12.8011ZM15.2135 12.9382L14.7315 13.2294L15.2135 12.9382ZM18.139 5.00054L17.9856 5.54181L18.139 5.00054ZM17.8205 5.88731C17.8725 5.78337 17.9162 5.69632 17.9596 5.61931C18.0034 5.54145 18.0363 5.49331 18.0599 5.46524C18.085 5.4354 18.0775 5.45497 18.0321 5.47447C17.9708 5.50084 17.9015 5.50119 17.8524 5.48555L18.1943 4.41359C17.9885 4.34801 17.7778 4.35851 17.5862 4.44083C17.4105 4.51629 17.2839 4.63763 17.1968 4.74112C17.0324 4.93643 16.9033 5.20185 16.8123 5.38368L17.8205 5.88731ZM17.0775 6.87504C17.295 6.74069 17.4456 6.544 17.5494 6.38284C17.6557 6.21772 17.7472 6.03353 17.8205 5.88731L16.8123 5.38368C16.733 5.54201 16.6686 5.66927 16.6012 5.77399C16.5689 5.8242 16.5414 5.86025 16.5187 5.88536C16.496 5.91056 16.484 5.91815 16.4841 5.91809L17.0775 6.87504ZM16.6456 8.08943C16.6241 7.72491 16.6225 7.59231 16.6593 7.46671C16.6925 7.35367 16.7759 7.19301 17.0699 6.8729L16.2389 6.11225C15.9057 6.47512 15.6834 6.78917 15.5776 7.15013C15.4755 7.49853 15.5019 7.83923 15.5205 8.15485L16.6456 8.08943ZM16.6462 8.10146L16.6462 8.10145L15.5199 8.14284L15.5199 8.14285L16.6462 8.10146ZM16.6454 8.08669L16.6454 8.08667L15.5207 8.15763L15.5207 8.15764L16.6454 8.08669ZM16.6671 8.53119C16.6617 8.36275 16.653 8.21539 16.6456 8.08946L15.5205 8.15488C15.5279 8.28143 15.5358 8.41506 15.5407 8.56674L16.6671 8.53119ZM16.1806 10.4701C16.296 10.269 16.4082 10.077 16.4913 9.77841C16.5689 9.50013 16.6176 9.145 16.6653 8.59815L15.5425 8.49978C15.4953 9.04124 15.4529 9.30626 15.4055 9.47626C15.3638 9.62596 15.3173 9.71037 15.2026 9.91019L16.1806 10.4701ZM15.8451 11.1109C15.9838 10.8128 16.0904 10.6272 16.1806 10.4701L15.2026 9.91019C15.1074 10.0761 14.9821 10.2943 14.823 10.636L15.8451 11.1109ZM15.8248 11.1539L15.8438 11.1137L14.8243 10.6332L14.8053 10.6734L15.8248 11.1539ZM15.7105 12.6921C15.6133 12.2021 15.6257 11.864 15.6643 11.6365C15.7023 11.4121 15.769 11.2711 15.8241 11.1552L14.8059 10.6721C14.7384 10.8142 14.6175 11.0678 14.553 11.4481C14.4891 11.8253 14.4842 12.3019 14.605 12.9101L15.7105 12.6921ZM15.7232 12.6934C15.7152 12.6798 15.7055 12.6635 15.6954 12.6469L14.7315 13.2294C14.7381 13.2402 14.7448 13.2516 14.7534 13.2661L15.7232 12.6934ZM15.8719 12.8379C15.8386 12.8286 15.8205 12.8196 15.812 12.8148C15.8041 12.8104 15.8 12.8068 15.7966 12.8035C15.7848 12.7921 15.7719 12.7755 15.7232 12.6934L14.7534 13.2661C14.7949 13.3361 14.8762 13.4785 15.0095 13.6084C15.1532 13.7485 15.3357 13.8563 15.5686 13.9214L15.8719 12.8379ZM15.777 12.8228C15.8079 12.8241 15.8399 12.8289 15.8719 12.8379L15.5686 13.9214C15.6223 13.9364 15.6764 13.9447 15.73 13.947L15.777 12.8228ZM15.9199 12.8526L15.9119 12.8503L15.6084 13.9338L15.6164 13.9361L15.9199 12.8526ZM26.8997 11.9829C26.7958 12.3658 26.4903 12.7313 25.907 13.0402C25.3218 13.3499 24.5039 13.5749 23.4897 13.6847C21.4647 13.9039 18.7773 13.6515 15.9198 12.8526L15.6165 13.9361C18.5764 14.7637 21.4112 15.0416 23.6119 14.8033C24.7105 14.6844 25.6813 14.4336 26.4355 14.0343C27.1915 13.6341 27.776 13.0572 27.9875 12.2778L26.8997 11.9829ZM17.9856 5.54181C20.8209 6.34433 23.235 7.52118 24.8486 8.75706C25.6567 9.37599 26.2405 9.99182 26.5838 10.5604C26.9264 11.128 27.0034 11.6007 26.8997 11.9829L27.9875 12.2778C28.1977 11.5034 27.9902 10.7109 27.5489 9.98006C27.1084 9.2503 26.4092 8.5346 25.5342 7.86445C23.7817 6.52217 21.2297 5.29066 18.2924 4.45927L17.9856 5.54181ZM19.4242 5.37387C19.1783 5.99515 18.9748 6.57047 18.8626 6.98381L19.9504 7.2787C20.0463 6.92549 20.2319 6.39549 20.4724 5.78787L19.4242 5.37387ZM18.8626 6.98381C18.4311 8.57395 18.5643 10.442 18.8633 11.5248L19.9498 11.2264C19.6964 10.3089 19.5789 8.64761 19.9504 7.2787L18.8626 6.98381ZM22.5925 6.90537C22.4534 7.70753 22.4026 8.66422 22.4272 9.52186C22.4511 10.3569 22.5483 11.185 22.7518 11.6864L23.7963 11.2644C23.6746 10.9646 23.5773 10.3132 23.5537 9.49036C23.5308 8.69015 23.5794 7.81061 23.703 7.09799L22.5925 6.90537ZM15.1948 13.4219C15.2093 13.6631 15.3754 13.8686 15.6084 13.9338L15.9119 12.8503C16.1417 12.9146 16.3055 13.1174 16.3198 13.3552L15.1948 13.4219ZM15.73 13.947C15.4515 13.9352 15.2125 13.7162 15.1948 13.4219L16.3198 13.3552C16.3019 13.0569 16.0595 12.8347 15.777 12.8228L15.73 13.947ZM16.4841 5.91809C16.4435 5.94316 16.3341 6.00851 16.2389 6.11225L17.0699 6.8729C17.0552 6.88884 17.0447 6.8962 17.0462 6.89509C17.0468 6.89468 17.0492 6.89295 17.0546 6.88943C17.0602 6.88579 17.0671 6.88147 17.0775 6.87504L16.4841 5.91809ZM14.605 12.9101C14.6306 13.0392 14.6815 13.1469 14.7315 13.2294L15.6954 12.6469C15.6941 12.6447 15.7042 12.6601 15.7105 12.6921L14.605 12.9101ZM17.8128 5.47131C17.8054 5.46834 17.802 5.46651 17.8058 5.4684C17.8077 5.4693 17.8101 5.47052 17.8147 5.47278C17.8184 5.47466 17.8251 5.47798 17.8315 5.48116C17.8553 5.49287 17.913 5.52127 17.9856 5.54181L18.2924 4.45927C18.3101 4.46429 18.3227 4.46932 18.3284 4.47173C18.3337 4.47396 18.3355 4.47501 18.3297 4.47214C18.3267 4.47065 18.3238 4.46923 18.3181 4.46638C18.3132 4.46392 18.3062 4.46042 18.2985 4.4567C18.2834 4.44935 18.2607 4.43865 18.2339 4.42783L17.8128 5.47131Z" fill="#1D1D1D"></path> <path d="M18.9102 5.23828L21.432 6.15244L22.6615 6.75351L24.9951 8.15609" stroke="#1D1D1D" stroke-width="1.12613"></path> </svg> 